HIERARCHY
ROOT hip
{
  OFFSET 0 0 0
  CHANNELS 6 Xposition Yposition Zposition Zrotation Yrotation Xrotation
  JOINT abdomen
  {
    OFFSET 0 20.6881 -0.73152
    CHANNELS 3 Zrotation Xrotation Yrotation
    JOINT chest
    {
      OFFSET 0 11.7043 -0.48768
      CHANNELS 3 Zrotation Xrotation Yrotation
      JOINT neck
      {
        OFFSET 0 22.1894 -2.19456
        CHANNELS 3 Zrotation Xrotation Yrotation
        JOINT head
        {
          OFFSET -0.24384 7.07133 1.2192
          CHANNELS 3 Zrotation Xrotation Yrotation
          JOINT leftEye
          {
            OFFSET 4.14528 8.04674 8.04672
            CHANNELS 3 Zrotation Xrotation Yrotation
            End Site
            {
              OFFSET 1 0 0
            }
          }
          JOINT rightEye
          {
            OFFSET -3.6576 8.04674 8.04672
            CHANNELS 3 Zrotation Xrotation Yrotation
            End Site
            {
              OFFSET 1 0 0
            }
          }
        }
      }
      JOINT rCollar
      {
        OFFSET -2.68224 19.2634 -4.8768
        CHANNELS 3 Zrotation Xrotation Yrotation
        JOINT rShldr
        {
          OFFSET -8.77824 -1.95073 1.46304
          CHANNELS 3 Zrotation Xrotation Yrotation
          JOINT rForeArm
          {
            OFFSET -28.1742 -1.7115 0.48768
            CHANNELS 3 Zrotation Xrotation Yrotation
            JOINT rHand
            {
              OFFSET -22.5879 0.773209 7.07136
              CHANNELS 3 Zrotation Xrotation Yrotation
              JOINT rThumb1
              {
                OFFSET -1.2192 -0.487915 3.41376
                CHANNELS 3 Zrotation Xrotation Yrotation
                JOINT rThumb2
                {
                  OFFSET -3.37035 -0.52449 3.41376
                  CHANNELS 3 Zrotation Xrotation Yrotation
                  End Site
                  {
                    OFFSET -1.78271 -1.18214 1.43049
                  }
                }
              }
              JOINT rIndex1
              {
                OFFSET -7.75947 0.938293 5.60832
                CHANNELS 3 Zrotation Xrotation Yrotation
                JOINT rIndex2
                {
                  OFFSET -2.54057 -0.884171 1.56538
                  CHANNELS 3 Zrotation Xrotation Yrotation
                  End Site
                  {
                    OFFSET -1.62519 -0.234802 1.16502
                  }
                }
              }
              JOINT rMid1
              {
                OFFSET -8.24714 1.18213 3.41376
                CHANNELS 3 Zrotation Xrotation Yrotation
                JOINT rMid2
                {
                  OFFSET -3.10165 -0.590103 1.0647
                  CHANNELS 3 Zrotation Xrotation Yrotation
                  End Site
                  {
                    OFFSET -2.48547 -0.328903 0.83742
                  }
                }
              }
              JOINT rRing1
              {
                OFFSET -8.82822 0.546677 1.51678
                CHANNELS 3 Zrotation Xrotation Yrotation
                JOINT rRing2
                {
                  OFFSET -2.60934 -0.819778 -0.0198488
                  CHANNELS 3 Zrotation Xrotation Yrotation
                  End Site
                  {
                    OFFSET -2.33842 -0.294052 0.168128
                  }
                }
              }
              JOINT rPinky1
              {
                OFFSET -8.27202 -0.0477905 -0.4584
                CHANNELS 3 Zrotation Xrotation Yrotation
                JOINT rPinky2
                {
                  OFFSET -1.82734 -0.647385 -0.700984
                  CHANNELS 3 Zrotation Xrotation Yrotation
                  End Site
                  {
                    OFFSET -1.69225 -0.51767 -0.607171
                  }
                }
              }
            }
          }
        }
      }
      JOINT lCollar
      {
        OFFSET 2.68224 19.2634 -4.8768
        CHANNELS 3 Zrotation Xrotation Yrotation
        JOINT lShldr
        {
          OFFSET 8.77824 -1.95073 1.46304
          CHANNELS 3 Zrotation Xrotation Yrotation
          JOINT lForeArm
          {
            OFFSET 28.1742 -1.7115 0.48768
            CHANNELS 3 Zrotation Xrotation Yrotation
            JOINT lHand
            {
              OFFSET 22.5879 0.773209 7.07136
              CHANNELS 3 Zrotation Xrotation Yrotation
              JOINT lThumb1
              {
                OFFSET 1.2192 -0.487915 3.41376
                CHANNELS 3 Zrotation Xrotation Yrotation
                JOINT lThumb2
                {
                  OFFSET 3.37035 -0.52449 3.41376
                  CHANNELS 3 Zrotation Xrotation Yrotation
                  End Site
                  {
                    OFFSET 1.78271 -1.18214 1.43049
                  }
                }
              }
              JOINT lIndex1
              {
                OFFSET 7.75947 0.938293 5.60832
                CHANNELS 3 Zrotation Xrotation Yrotation
                JOINT lIndex2
                {
                  OFFSET 2.54057 -0.884171 1.56538
                  CHANNELS 3 Zrotation Xrotation Yrotation
                  End Site
                  {
                    OFFSET 1.62519 -0.234802 1.16502
                  }
                }
              }
              JOINT lMid1
              {
                OFFSET 8.24714 1.18213 3.41376
                CHANNELS 3 Zrotation Xrotation Yrotation
                JOINT lMid2
                {
                  OFFSET 3.10165 -0.590103 1.0647
                  CHANNELS 3 Zrotation Xrotation Yrotation
                  End Site
                  {
                    OFFSET 2.48547 -0.328903 0.83742
                  }
                }
              }
              JOINT lRing1
              {
                OFFSET 8.82822 0.546677 1.51678
                CHANNELS 3 Zrotation Xrotation Yrotation
                JOINT lRing2
                {
                  OFFSET 2.60934 -0.819778 -0.0198488
                  CHANNELS 3 Zrotation Xrotation Yrotation
                  End Site
                  {
                    OFFSET 2.33842 -0.294052 0.168128
                  }
                }
              }
              JOINT lPinky1
              {
                OFFSET 8.27202 -0.0477905 -0.4584
                CHANNELS 3 Zrotation Xrotation Yrotation
                JOINT lPinky2
                {
                  OFFSET 1.82734 -0.647385 -0.700984
                  CHANNELS 3 Zrotation Xrotation Yrotation
                  End Site
                  {
                    OFFSET 1.69225 -0.51767 -0.607171
                  }
                }
              }
            }
          }
        }
      }
    }
  }
  JOINT rButtock
  {
    OFFSET -8.77824 4.35084 1.2192
    CHANNELS 3 Zrotation Xrotation Yrotation
    JOINT rThigh
    {
      OFFSET 0 -1.70687 -2.19456
      CHANNELS 3 Zrotation Xrotation Yrotation
      JOINT rShin
      {
        OFFSET 0 -36.8199 0.73152
        CHANNELS 3 Zrotation Xrotation Yrotation
        JOINT rFoot
        {
          OFFSET 0.73152 -45.1104 -5.12064
          CHANNELS 3 Zrotation Xrotation Yrotation
          End Site
          {
            OFFSET -1.1221 -3.69964 12.103
          }
        }
      }
    }
  }
  JOINT lButtock
  {
    OFFSET 8.77824 4.35084 1.2192
    CHANNELS 3 Zrotation Xrotation Yrotation
    JOINT lThigh
    {
      OFFSET 0 -1.70687 -2.19456
      CHANNELS 3 Zrotation Xrotation Yrotation
      JOINT lShin
      {
        OFFSET 0 -36.8199 0.73152
        CHANNELS 3 Zrotation Xrotation Yrotation
        JOINT lFoot
        {
          OFFSET -0.73152 -45.1104 -5.12064
          CHANNELS 3 Zrotation Xrotation Yrotation
          End Site
          {
            OFFSET 1.1221 -3.69964 12.103
          }
        }
      }
    }
  }
}
MOTION
Frames:	6
Frame Time:	0.00833333
70.7917 84.9017 -114.468 0.0 0.0 0.0 0.602249 -0.0028556 0.0171686 0.166049 -0.0043177 0.02877 -4.5665e-16 7.95139e-16 1.11816e-16 -1.56232e-15 9.54166e-15 3.3079e-16 -0.0 0.0 0.0 -0.0 0.0 0.0 -2.49859e-16 -7.5709e-18 1.98785e-16 -4.0051e-15 -2.48481e-17 1.98785e-15 -8.28932e-14 1.86858e-14 3.18055e-15 -9.4478e-13 -4.96216e-14 2.41722e-13 -2.23185e-12 -7.04956e-14 5.34333e-13 -3.86278e-12 -1.24042e-13 9.35083e-13 -2.22917e-12 -7.03698e-14 5.27972e-13 7.73091 5.47488 0.417314 -2.23285e-12 -7.02704e-14 5.40694e-13 2.90554 0.965183 0.102902 -2.23104e-12 -7.0668e-14 5.4308e-13 10.2786 0.731801 0.0259123 -2.23454e-12 -7.03698e-14 5.56597e-13 2.22167 -0.733487 -0.20892 -4.45905e-16 -8.54153e-18 -9.93923e-17 -5.93335e-15 1.80149e-16 3.97569e-16 -8.32908e-14 -2.62396e-14 1.90833e-14 -9.44476e-13 1.01629e-14 2.35361e-13 -2.2264e-12 -3.96871e-14 5.56597e-13 -3.83615e-12 -6.99722e-14 9.46215e-13 -2.23076e-12 -3.81667e-14 5.59778e-13 -7.73091 5.47488 -0.417314 -2.22534e-12 -4.01545e-14 5.43875e-13 -2.90554 0.965183 -0.102902 -2.23102e-12 -3.94588e-14 5.47851e-13 -10.2786 0.731801 -0.0259123 -2.21923e-12 -3.61788e-14 5.37514e-13 -2.22167 -0.733487 0.20892 -2.03217e-16 0.0 -3.88251e-19 0.985336 -4.6022 -0.081237 -0.0020216 2.78419 -0.0080317 -0.532508 1.81802 0.0982108 2.03217e-16 0.0 3.88251e-19 -0.0702831 -2.29251 0.0218629 0.0084676 -1.39937 0.072342 0.526303 3.69179 -0.136104
69.1576 82.7805 -116.16 0.2263 -31.0536 5.5006 0.77893 3.89662 0.706124 0.426893 -0.445064 0.200388 1.11653 1.57338 1.70189 -4.93457 -2.54388 2.75928 -0.0 0.0 0.0 -0.0 0.0 0.0 6.77413e-14 -3.81796e-15 -1.83366e-13 19.651 4.64858 0.413069 -5.9425 -3.16294 8.72382 -6.5943e-06 0.0525004 0.00737854 5.79287e-10 -1.79284e-09 -3.66859e-10 1.00367e-09 -3.10357e-09 -6.36615e-10 5.79293e-10 -1.79284e-09 -3.66866e-10 7.73091 5.47488 0.417314 5.79286e-10 -1.79284e-09 -3.66853e-10 2.90554 0.965183 0.102902 5.79288e-10 -1.79284e-09 -3.66852e-10 10.2786 0.731801 0.0259123 5.79285e-10 -1.79283e-09 -3.66838e-10 2.22167 -0.733487 -0.20892 6.76099e-14 -3.82172e-15 -1.83637e-13 -20.7684 10.1751 -1.42883 3.37992 -1.39929 -5.41851 -0.00821188 -2.26702 0.31791 2.80263e-11 -6.52628e-10 -1.19569e-09 5.25382e-11 -1.12772e-09 -2.06738e-09 2.8022e-11 -6.52626e-10 -1.19568e-09 -7.73091 5.47488 -0.417314 2.8028e-11 -6.52627e-10 -1.1957e-09 -2.90554 0.965183 -0.102902 2.80201e-11 -6.52627e-10 -1.1957e-09 -10.2786 0.731801 -0.0259123 2.80339e-11 -6.52624e-10 -1.19571e-09 -2.22167 -0.733487 0.20892 -2.03217e-16 0.0 -3.88251e-19 0.369563 -6.44529 0.535972 -0.0155756 16.2792 0.17555 -0.513361 6.38384 1.97346 2.03217e-16 0.0 3.88251e-19 -0.0676909 -12.4997 -0.0206005 0.0574085 10.2195 -0.0196767 0.527485 1.63345 0.444522
68.8239 82.4488 -114.906 0.8482 -31.0296 4.5289 0.926347 8.00459 1.43178 0.698419 -0.918951 0.380677 2.20202 3.23187 3.50291 -9.88078 -5.2044 5.68988 -0.0 0.0 0.0 -0.0 0.0 0.0 1.46966e-13 -8.84555e-15 -4.00775e-13 40.3418 9.60534 0.860672 -11.1889 -6.26179 18.0295 -3.59595e-05 0.0990701 0.0139236 1.28465e-09 -3.95588e-09 -8.44485e-10 2.22562e-09 -6.84816e-09 -1.46544e-09 1.28466e-09 -3.95588e-09 -8.44491e-10 7.73091 5.47488 0.417314 1.28465e-09 -3.95588e-09 -8.44478e-10 2.90554 0.965183 0.102902 1.28465e-09 -3.95588e-09 -8.44478e-10 10.2786 0.731801 0.0259123 1.28465e-09 -3.95588e-09 -8.44463e-10 2.22167 -0.733487 -0.20892 1.46903e-13 -8.85253e-15 -4.01017e-13 -42.1024 21.0755 -3.13409 6.64984 -2.82617 -11.1307 0.0123617 -4.78416 0.672754 8.80958e-11 -1.4533e-09 -2.60542e-09 1.60796e-10 -2.51159e-09 -4.50496e-09 8.80915e-11 -1.45329e-09 -2.60542e-09 -7.73091 5.47488 -0.417314 8.80981e-11 -1.45329e-09 -2.60543e-09 -2.90554 0.965183 -0.102902 8.80878e-11 -1.45329e-09 -2.60543e-09 -10.2786 0.731801 -0.0259123 8.81039e-11 -1.45329e-09 -2.60544e-09 -2.22167 -0.733487 0.20892 -2.03217e-16 0.0 -3.88251e-19 -0.177471 -8.32046 1.18993 -0.1365 30.4071 0.40999 -0.824762 11.1944 3.97972 2.03217e-16 0.0 3.88251e-19 -0.0290087 -23.3439 -0.0907719 0.151891 22.4639 -0.124915 0.573969 -0.486075 1.06113
68.4945 82.124 -113.612 1.6068 -31.0995 3.374 0.845927 11.6887 2.12319 0.956505 -1.32651 0.543751 3.06877 4.70347 5.12104 -14.066 -7.56057 8.3427 -0.0 0.0 0.0 -0.0 0.0 0.0 2.03724e-13 -1.14387e-14 -5.50497e-13 58.7466 13.9428 1.27263 -15.0226 -8.61056 26.4521 -6.0349e-05 0.157501 0.0221357 1.74233e-09 -5.37837e-09 -1.10165e-09 3.01873e-09 -9.31046e-09 -1.91172e-09 1.74234e-09 -5.37836e-09 -1.10165e-09 7.73091 5.47488 0.417314 1.74232e-09 -5.37837e-09 -1.10164e-09 2.90554 0.965183 0.102902 1.74233e-09 -5.37836e-09 -1.10164e-09 10.2786 0.731801 0.0259123 1.74232e-09 -5.37836e-09 -1.10163e-09 2.22167 -0.733487 -0.20892 2.03722e-13 -1.14481e-14 -5.50714e-13 -60.5779 30.4432 -4.89528 9.35592 -4.04794 -16.2924 0.0512882 -6.80021 0.959735 8.85318e-11 -1.95781e-09 -3.58818e-09 1.65287e-10 -3.38303e-09 -6.20402e-09 8.85274e-11 -1.9578e-09 -3.58817e-09 -7.73091 5.47488 -0.417314 8.85347e-11 -1.9578e-09 -3.58818e-09 -2.90554 0.965183 -0.102902 8.85223e-11 -1.9578e-09 -3.58818e-09 -10.2786 0.731801 -0.0259123 8.85402e-11 -1.9578e-09 -3.58819e-09 -2.22167 -0.733487 0.20892 -2.03217e-16 0.0 -3.88251e-19 -0.741098 -10.1275 1.78756 -0.385242 43.2672 0.716303 -1.39986 15.4484 5.90125 2.03217e-16 0.0 3.88251e-19 -0.114716 -32.9139 -0.123918 0.28232 33.4571 -0.243 0.65497 -2.48212 1.60618
68.1557 81.7971 -112.356 2.3592 -31.2496 2.2637 0.389092 14.3189 2.69417 1.17525 -1.56828 0.663655 3.58628 5.72362 6.26737 -16.8641 -9.22241 10.2406 -0.0 0.0 0.0 -0.0 0.0 0.0 2.0431e-13 -7.94595e-15 -5.31004e-13 71.5886 16.735 1.5619 -17.2688 -9.92143 32.3995 -7.39697e-05 0.245586 0.0345151 1.58078e-09 -4.94947e-09 -8.07651e-10 2.73974e-09 -8.56704e-09 -1.40161e-09 1.5808e-09 -4.94947e-09 -8.07657e-10 7.73091 5.47488 0.417314 1.58078e-09 -4.94947e-09 -8.07645e-10 2.90554 0.965183 0.102902 1.58079e-09 -4.94947e-09 -8.07646e-10 10.2786 0.731801 0.0259123 1.58078e-09 -4.94947e-09 -8.07632e-10 2.22167 -0.733487 -0.20892 2.04355e-13 -7.95546e-15 -5.31202e-13 -73.3311 36.0694 -6.13553 11.1855 -4.89366 -20.0444 0.0707011 -7.56462 1.06942 -6.01157e-11 -1.72192e-09 -3.5035e-09 -8.96396e-11 -2.9734e-09 -6.05675e-09 -6.01204e-11 -1.72192e-09 -3.50349e-09 -7.73091 5.47488 -0.417314 -6.01125e-11 -1.72192e-09 -3.5035e-09 -2.90554 0.965183 -0.102902 -6.01261e-11 -1.72192e-09 -3.5035e-09 -10.2786 0.731801 -0.0259123 -6.01077e-11 -1.72192e-09 -3.50351e-09 -2.22167 -0.733487 0.20892 -2.03217e-16 0.0 -3.88251e-19 -1.42268 -11.7672 2.23263 -0.723398 52.9594 1.07382 -1.99252 18.3686 7.45451 2.03217e-16 0.0 3.88251e-19 -0.428077 -39.2983 -0.0237191 0.413125 41.3224 -0.356984 0.738231 -4.17075 1.97054
67.8425 81.5028 -111.118 3.3634 -31.4143 1.2098 -0.606521 15.5202 3.09029 1.3648 -1.56306 0.723471 3.68794 6.12527 6.74349 -17.9417 -10.0271 11.0354 -0.0 0.0 0.0 -0.0 0.0 0.0 1.10904e-13 1.90878e-14 -1.95443e-13 76.6922 17.2973 1.68442 -18.0593 -10.3446 34.7356 -0.000247126 0.34361 0.0482949 1.68596e-10 -9.55461e-10 5.58717e-10 2.95884e-10 -1.6503e-09 9.69823e-10 1.6861e-10 -9.5546e-10 5.58711e-10 7.73091 5.47488 0.417314 1.68596e-10 -9.55461e-10 5.5872e-10 2.90554 0.965183 0.102902 1.68599e-10 -9.5546e-10 5.58719e-10 10.2786 0.731801 0.0259123 1.68592e-10 -9.55457e-10 5.58732e-10 2.22167 -0.733487 -0.20892 1.10976e-13 1.90814e-14 -1.95633e-13 -78.9408 36.3413 -6.07481 12.0365 -5.32176 -21.8403 0.0392716 -6.3884 0.900753 -6.09881e-10 -8.38345e-11 -1.42091e-09 -1.0401e-09 -1.36712e-10 -2.45316e-09 -6.09887e-10 -8.38318e-11 -1.4209e-09 -7.73091 5.47488 -0.417314 -6.09878e-10 -8.38307e-11 -1.42091e-09 -2.90554 0.965183 -0.102902 -6.09892e-10 -8.38308e-11 -1.42091e-09 -10.2786 0.731801 -0.0259123 -6.09874e-10 -8.38322e-11 -1.42092e-09 -2.22167 -0.733487 0.20892 -2.03217e-16 0.0 -3.88251e-19 -2.38663 -13.1537 2.4729 -1.00134 58.293 1.35701 -2.35639 19.6265 8.54442 2.03217e-16 0.0 3.88251e-19 -1.10819 -41.2138 0.279973 0.487699 44.8641 -0.42654 0.787879 -5.45729 2.09275
